<?xml version="1.0" encoding="utf-8"?>
<!-- Generator: Adobe Illustrator 17.0.0, SVG Export Plug-In . SVG Version: 6.00 Build 0)  -->
<!DOCTYPE svg PUBLIC "-//W3C//DTD SVG 1.1//EN" "http://www.w3.org/Graphics/SVG/1.1/DTD/svg11.dtd">
<svg version="1.1" id="Layer_1" xmlns="http://www.w3.org/2000/svg" xmlns:xlink="http://www.w3.org/1999/xlink" x="0px" y="0px"
	 width="500px" height="500px" viewBox="0 0 500 500" enable-background="new 0 0 500 500" xml:space="preserve">
<path fill="#B7B7B7" d="M246.341,19.102c-130.471,0-236.238,105.767-236.238,236.238S115.87,491.578,246.341,491.578
	S482.579,385.811,482.579,255.34S376.811,19.102,246.341,19.102z M369.207,207.746c0.107,2.405,0.162,4.824,0.162,7.256
	c0,74.12-56.416,159.586-159.585,159.586c-31.675,0-61.157-9.285-85.979-25.199c4.388,0.518,8.852,0.783,13.38,0.783
	c26.278,0,50.463-8.967,69.659-24.01c-24.544-0.453-45.258-16.67-52.396-38.953c3.425,0.654,6.938,1.006,10.553,1.006
	c5.115,0,10.07-0.685,14.777-1.967c-25.659-5.152-44.993-27.822-44.993-54.998c0-0.236,0.001-0.471,0.005-0.705
	c7.562,4.201,16.211,6.725,25.405,7.016c-15.05-10.059-24.952-27.227-24.952-46.685c0-10.279,2.766-19.914,7.594-28.198
	c27.664,33.935,68.993,56.265,115.608,58.604c-0.956-4.105-1.452-8.386-1.452-12.782c0-30.975,25.113-56.088,56.091-56.088
	c16.132,0,30.709,6.811,40.94,17.713c12.776-2.516,24.78-7.184,35.617-13.611c-4.188,13.098-13.081,24.09-24.662,31.031
	c11.347-1.355,22.156-4.371,32.215-8.832C389.675,189.959,380.165,199.838,369.207,207.746z"/>
<g>
</g>
<g>
</g>
<g>
</g>
<g>
</g>
<g>
</g>
<g>
</g>
<g>
</g>
<g>
</g>
<g>
</g>
<g>
</g>
<g>
</g>
<g>
</g>
<g>
</g>
<g>
</g>
<g>
</g>
</svg>
